<?xml version="1.0" encoding="UTF-8" standalone="no"?>
<svg
    xmlns:inkscape="http://www.inkscape.org/namespaces/inkscape"
    xmlns:sodipodi="http://sodipodi.sourceforge.net/DTD/sodipodi-0.dtd"
    xmlns:svg="http://www.w3.org/2000/svg"
    version="1.0"
    width="1024pt"
    height="1024pt"
    viewBox="0 0 1024 1024"
    preserveAspectRatio="xMidYMid"
    id="svg1"
    sodipodi:docname="ChatGPT-Image-Jun-29_-2025_-07_27_22-PM.svg"
    inkscape:export-filename="logo.svg"
    inkscape:export-xdpi="96"
    inkscape:export-ydpi="96"
    inkscape:version="1.4.2 (ebf0e940d0, 2025-05-08)"
    xmlns="http://www.w3.org/2000/svg">
    <defs
        id="defs1"/>
    <sodipodi:namedview
        id="namedview1"
        pagecolor="#ffffff"
        bordercolor="#999999"
        borderopacity="1"
        inkscape:showpageshadow="2"
        inkscape:pageopacity="0"
        inkscape:pagecheckerboard="0"
        inkscape:deskcolor="#d1d1d1"
        inkscape:document-units="pt"
        inkscape:zoom="0.40136719"
        inkscape:cx="702.59854"
        inkscape:cy="614.15085"
        inkscape:window-width="1914"
        inkscape:window-height="1046"
        inkscape:window-x="0"
        inkscape:window-y="0"
        inkscape:window-maximized="0"
        inkscape:current-layer="g1">
        <inkscape:page
            x="0"
            y="0"
            width="1024"
            height="1024"
            id="page2"
            margin="0"
            bleed="0"/>
    </sodipodi:namedview>
    <g
        transform="matrix(0.1,0,0,-0.1,0,1024)"
        fill="#000000"
        stroke="none"
        id="g1">
        <path
            style="fill:#225500;stroke-width:18.5814"
            d="m 2108.8764,6482.8795 c 121.174,-296.1655 462.5919,-810.2186 773.7188,-1164.9449 226.7104,-258.48 327.9311,-348.6579 612.5438,-545.7165 413.3415,-286.1878 614.4733,-364.4648 1470.8842,-572.4438 496.4633,-120.5658 757.646,-200.8654 984.9992,-302.8342 79.6576,-35.7264 162.3138,-72.0128 183.6812,-80.6361 21.367,-8.6234 35.2483,-21.529 30.8472,-28.6795 -4.4011,-7.15 -79.6983,8.411 -167.3269,34.5801 -234.6863,70.0866 -414.6637,97.794 -897.5105,138.1717 -723.1327,60.4715 -1016.4016,119.6086 -1361.5845,274.5607 -134.5304,60.3907 -214.5048,110.476 -420.0715,263.076 -140.0332,103.9519 -292.449,230.581 -339.8472,282.3487 -147.2337,160.8082 -351.6743,438.2798 -484.6285,657.7497 -70.1683,115.828 -133.1573,209.3508 -139.9751,207.8281 -6.8187,-1.5226 31.1442,-214.9382 84.3622,-474.257 141.0018,-687.0734 268.4861,-1078.5323 469.33,-1441.1448 229.3156,-414.0172 520.8244,-713.27 894.2312,-917.987 699.4425,-383.4633 1400.6679,-386.6326 2816.3974,-12.7291 208.6736,55.1121 487.258,118.0402 619.0761,139.8399 l 239.6696,39.6362 -18.2629,100.839 c -26.5598,146.6496 -164.6845,620.2937 -245.0498,840.3008 -253.8735,695.0012 -655.8848,1345.245 -1076.7411,1741.6026 -189.2596,178.2424 -494.2168,384.2501 -698.7374,472.0181 -512.6328,219.9908 -1022.9658,242.9809 -1914.626,86.2521 -691.3132,-121.5132 -770.7348,-118.6774 -994.3172,35.5067 -141.4102,97.5157 -148.4444,105.302 -228.367,252.7292 l -82.4631,152.113 -60.5736,-30.6391 c -83.2314,-42.1002 -87.4821,-54.6957 -49.6586,-147.1406 z M 3795.1642,4980.2362 c 288.2479,-54.9589 678.8491,-37.3225 1103.5232,49.8255 152.6586,31.3273 272.9671,49.4958 267.3527,40.3746 -35.7064,-58.0094 -550.9871,-204.015 -781.4121,-221.4147 -306.4686,-23.142 -778.6997,79.6575 -958.9817,208.7593 -56.4783,40.4447 -49.5978,40.1976 81.7888,-2.9385 78.9003,-25.904 208.3782,-59.4769 287.7291,-74.6062 z"
            id="path2"/>
    </g>
</svg>
